<svg xmlns="http://www.w3.org/2000/svg" viewBox="0 0 512 768">
  <defs>
    <linearGradient id="bg" x1="0" y1="0" x2="0" y2="1">
      <stop offset="0%" stop-color="#4f3416"/>
      <stop offset="100%" stop-color="#2d1d0d"/>
    </linearGradient>
  </defs>
  <rect width="512" height="768" fill="url(#bg)"/>
  <text x="256" y="86" text-anchor="middle" fill="#ffe0ae" font-size="56" font-weight="700">地图卡</text>
  <rect x="50" y="120" width="412" height="560" rx="24" fill="#d9b67a" stroke="#f4d8a9" stroke-width="8"/>
  <g stroke="#936f41" stroke-width="3" opacity="0.45">
    <line x1="90" y1="160" x2="420" y2="160"/><line x1="90" y1="240" x2="420" y2="240"/>
    <line x1="90" y1="320" x2="420" y2="320"/><line x1="90" y1="400" x2="420" y2="400"/>
    <line x1="90" y1="480" x2="420" y2="480"/><line x1="90" y1="560" x2="420" y2="560"/>
    <line x1="120" y1="145" x2="120" y2="650"/><line x1="200" y1="145" x2="200" y2="650"/>
    <line x1="280" y1="145" x2="280" y2="650"/><line x1="360" y1="145" x2="360" y2="650"/>
  </g>
  <path d="M110 230 C180 260, 210 300, 270 340 S360 390, 390 430" fill="none" stroke="#6d4923" stroke-width="10" stroke-linecap="round"/>
  <g transform="translate(340,392)">
    <circle r="52" fill="#b88b52" stroke="#6d4923" stroke-width="8"/>
    <polygon points="0,-38 13,0 0,38 -13,0" fill="#b92929"/>
  </g>
  <g transform="translate(118,214)">
    <line x1="-20" y1="-20" x2="20" y2="20" stroke="#982f2f" stroke-width="10"/>
    <line x1="20" y1="-20" x2="-20" y2="20" stroke="#982f2f" stroke-width="10"/>
  </g>
  <text x="256" y="728" text-anchor="middle" fill="#ffe0ae" font-size="34">Map</text>
</svg>
